<svg width="30" height="30" viewBox="0 0 30 30" fill="none" xmlns="http://www.w3.org/2000/svg">
<g clip-path="url(#clip0_4_62)">
<path d="M21.0762 2.84696C22.6864 2.85177 24.2292 3.49355 25.3678 4.63214C26.5064 5.77072 27.1482 7.31359 27.153 8.92379V21.0761C27.1482 22.6863 26.5064 24.2292 25.3678 25.3678C24.2292 26.5064 22.6864 27.1481 21.0762 27.153H8.92382C7.31362 27.1481 5.77075 26.5064 4.63217 25.3678C3.49358 24.2292 2.8518 22.6863 2.847 21.0761V8.92379C2.8518 7.31359 3.49358 5.77072 4.63217 4.63214C5.77075 3.49355 7.31362 2.85177 8.92382 2.84696H21.0762ZM21.0762 0.416626H8.92382C4.24478 0.416626 0.416656 4.24475 0.416656 8.92379V21.0761C0.416656 25.7552 4.24478 29.5833 8.92382 29.5833H21.0762C25.7552 29.5833 29.5833 25.7552 29.5833 21.0761V8.92379C29.5833 4.24475 25.7552 0.416626 21.0762 0.416626Z" fill="white"/>
<path d="M22.8991 8.92379C22.5386 8.92379 22.1861 8.81688 21.8863 8.61657C21.5866 8.41627 21.3529 8.13157 21.2149 7.79847C21.077 7.46538 21.0409 7.09885 21.1112 6.74524C21.1815 6.39163 21.3552 6.06681 21.6101 5.81187C21.865 5.55694 22.1899 5.38332 22.5435 5.31298C22.8971 5.24264 23.2636 5.27874 23.5967 5.41672C23.9298 5.55469 24.2145 5.78834 24.4148 6.08811C24.6151 6.38789 24.722 6.74033 24.722 7.10087C24.7225 7.3404 24.6757 7.57768 24.5843 7.79908C24.4929 8.02048 24.3586 8.22164 24.1892 8.39102C24.0199 8.56039 23.8187 8.69465 23.5973 8.78608C23.3759 8.8775 23.1386 8.9243 22.8991 8.92379ZM15 10.1386C15.9615 10.1386 16.9014 10.4237 17.7008 10.9579C18.5003 11.4921 19.1234 12.2513 19.4913 13.1396C19.8592 14.0279 19.9555 15.0054 19.7679 15.9484C19.5804 16.8914 19.1174 17.7576 18.4375 18.4374C17.7576 19.1173 16.8914 19.5803 15.9484 19.7679C15.0054 19.9555 14.028 19.8592 13.1397 19.4912C12.2514 19.1233 11.4921 18.5002 10.958 17.7008C10.4238 16.9013 10.1387 15.9614 10.1387 15C10.1401 13.7111 10.6527 12.4754 11.5641 11.564C12.4754 10.6526 13.7111 10.14 15 10.1386ZM15 7.70829C13.5579 7.70829 12.1481 8.13594 10.949 8.93716C9.74987 9.73838 8.81528 10.8772 8.26339 12.2096C7.7115 13.5419 7.5671 15.008 7.84845 16.4225C8.1298 17.8369 8.82427 19.1362 9.84403 20.1559C10.8638 21.1757 12.163 21.8702 13.5775 22.1515C14.9919 22.4329 16.458 22.2885 17.7904 21.7366C19.1228 21.1847 20.2616 20.2501 21.0628 19.051C21.864 17.8519 22.2917 16.4421 22.2917 15C22.2917 13.0661 21.5235 11.2114 20.156 9.84397C18.7885 8.47652 16.9339 7.70829 15 7.70829Z" fill="white"/>
</g>
<defs>
<clipPath id="clip0_4_62">
<rect width="30" height="30" fill="white"/>
</clipPath>
</defs>
</svg>
